# xmcd CD database file
#
# Track frame offsets:
#	182
#	24280
#	33507
#	52830
#	76905
#	96967
#	109015
#	126767
#	137075
#	153742
#	173370
#	187850
#	198975
#	210477
#
# Disc length: 3071 seconds
#
# Revision: 2
# Processed by: cddbd v1.4PL0 Copyright (c) Steve Scherf et al.
# Submitted via: CDex 1.51
#
DISCID=a90bfd0e
DTITLE=Various Artist - Love and Napalm
DYEAR=1993
DGENRE=Rock
TTITLE0=Ed Hall - Bullshit
TTITLE1=Crust - Dealer Mike
TTITLE2=Drain - Scientist
TTITLE3=Johnboy - Yellow
TTITLE4=Cherubs - Spitwad
TTITLE5=Painteens - Ituri
TTITLE6=Ed Hall - Bighead
TTITLE7=Crust - Desperate Cries
TTITLE8=Drain - Skincrawl
TTITLE9=Johnboy - Sourmouth
TTITLE10=Cherubs - Dovey
TTITLE11=Pain Teens You Only Live Twice
TTITLE12=Crust - Traveling With Berltz
TTITLE13=Pain Teens It Will
EXTD=YEAR: 1993
EXTT0=
EXTT1=
EXTT2=
EXTT3=
EXTT4=
EXTT5=
EXTT6=
EXTT7=
EXTT8=
EXTT9=
EXTT10=
EXTT11=
EXTT12=
EXTT13=
PLAYORDER=
